<svg id="eNvjHxdQPhe1" xmlns="http://www.w3.org/2000/svg" xmlns:xlink="http://www.w3.org/1999/xlink" viewBox="0 0 3840 2160" shape-rendering="geometricPrecision" text-rendering="geometricPrecision"><defs><linearGradient id="eNvjHxdQPhe2-fill" x1="0.475906" y1="-0.259494" x2="0.475929" y2="0.916053" spreadMethod="pad" gradientUnits="objectBoundingBox" gradientTransform="translate(0 0)"><stop id="eNvjHxdQPhe2-fill-0" offset="0%" stop-color="#364bba"/><stop id="eNvjHxdQPhe2-fill-1" offset="100%" stop-color="#a979d9"/></linearGradient><linearGradient id="eNvjHxdQPhe3-fill" x1="1.106973" y1="-0.239162" x2="1.106973" y2="1.561141" spreadMethod="pad" gradientUnits="objectBoundingBox" gradientTransform="translate(0 0)"><stop id="eNvjHxdQPhe3-fill-0" offset="31.2814%" stop-color="#a5c5eb"/><stop id="eNvjHxdQPhe3-fill-1" offset="86.2733%" stop-color="rgba(81,234,255,0)"/></linearGradient><linearGradient id="eNvjHxdQPhe4-fill" x1="0" y1="0.5" x2="1" y2="0.5" spreadMethod="pad" gradientUnits="objectBoundingBox" gradientTransform="translate(0 0)"><stop id="eNvjHxdQPhe4-fill-0" offset="26%" stop-color="#6783ca"/><stop id="eNvjHxdQPhe4-fill-1" offset="100%" stop-color="#271b59"/></linearGradient><linearGradient id="eNvjHxdQPhe5-fill" x1="0" y1="0.5" x2="1" y2="0.5" spreadMethod="pad" gradientUnits="objectBoundingBox" gradientTransform="translate(0 0)"><stop id="eNvjHxdQPhe5-fill-0" offset="26%" stop-color="#6783ca"/><stop id="eNvjHxdQPhe5-fill-1" offset="100%" stop-color="#271b59"/></linearGradient><linearGradient id="eNvjHxdQPhe6-fill" x1="0" y1="0.5" x2="1" y2="0.5" spreadMethod="pad" gradientUnits="objectBoundingBox" gradientTransform="translate(0 0)"><stop id="eNvjHxdQPhe6-fill-0" offset="26%" stop-color="#6783ca"/><stop id="eNvjHxdQPhe6-fill-1" offset="100%" stop-color="#271b59"/></linearGradient><linearGradient id="eNvjHxdQPhe7-fill" x1="0" y1="0.5" x2="1" y2="0.5" spreadMethod="pad" gradientUnits="objectBoundingBox" gradientTransform="translate(0 0)"><stop id="eNvjHxdQPhe7-fill-0" offset="26%" stop-color="#6783ca"/><stop id="eNvjHxdQPhe7-fill-1" offset="100%" stop-color="#271b59"/></linearGradient><linearGradient id="eNvjHxdQPhe8-fill" x1="0" y1="0.5" x2="1" y2="0.5" spreadMethod="pad" gradientUnits="objectBoundingBox" gradientTransform="translate(0 0)"><stop id="eNvjHxdQPhe8-fill-0" offset="26%" stop-color="#6783ca"/><stop id="eNvjHxdQPhe8-fill-1" offset="100%" stop-color="#271b59"/></linearGradient><linearGradient id="eNvjHxdQPhe9-fill" x1="0" y1="0.5" x2="1" y2="0.5" spreadMethod="pad" gradientUnits="objectBoundingBox" gradientTransform="translate(0 0)"><stop id="eNvjHxdQPhe9-fill-0" offset="26%" stop-color="#6783ca"/><stop id="eNvjHxdQPhe9-fill-1" offset="100%" stop-color="#271b59"/></linearGradient><linearGradient id="eNvjHxdQPhe12-fill" x1="1.045767" y1="0.057541" x2="1.045767" y2="1.661604" spreadMethod="pad" gradientUnits="objectBoundingBox" gradientTransform="translate(0 0)"><stop id="eNvjHxdQPhe12-fill-0" offset="0%" stop-color="#111f51"/><stop id="eNvjHxdQPhe12-fill-1" offset="100%" stop-color="rgba(131,69,159,0.4)"/><stop id="eNvjHxdQPhe12-fill-2" offset="100%" stop-color="rgba(131,69,159,0)"/></linearGradient><linearGradient id="eNvjHxdQPhe15-fill" x1="0.461892" y1="0.040852" x2="0.461892" y2="1.429021" spreadMethod="pad" gradientUnits="objectBoundingBox" gradientTransform="translate(0 0)"><stop id="eNvjHxdQPhe15-fill-0" offset="0%" stop-color="#111f51"/><stop id="eNvjHxdQPhe15-fill-1" offset="100%" stop-color="rgba(131,69,159,0)"/></linearGradient><linearGradient id="eNvjHxdQPhe16-fill" x1="0.461892" y1="0.040852" x2="0.461892" y2="1.429021" spreadMethod="pad" gradientUnits="objectBoundingBox" gradientTransform="translate(0 0)"><stop id="eNvjHxdQPhe16-fill-0" offset="0%" stop-color="#111f51"/><stop id="eNvjHxdQPhe16-fill-1" offset="100%" stop-color="rgba(131,69,159,0)"/></linearGradient><linearGradient id="eNvjHxdQPhe18-fill" x1="0.447352" y1="0.049609" x2="0.427279" y2="1.241728" spreadMethod="pad" gradientUnits="objectBoundingBox" gradientTransform="translate(0 0)"><stop id="eNvjHxdQPhe18-fill-0" offset="0%" stop-color="#111f51"/><stop id="eNvjHxdQPhe18-fill-1" offset="100%" stop-color="rgba(131,69,159,0)"/></linearGradient><linearGradient id="eNvjHxdQPhe20-fill" x1="0.566626" y1="0.004629" x2="0.566626" y2="1.265075" spreadMethod="pad" gradientUnits="objectBoundingBox" gradientTransform="translate(0 0)"><stop id="eNvjHxdQPhe20-fill-0" offset="0%" stop-color="#111f51"/><stop id="eNvjHxdQPhe20-fill-1" offset="100%" stop-color="rgba(131,69,159,0)"/></linearGradient><linearGradient id="eNvjHxdQPhe22-fill" x1="0.42956" y1="0.075593" x2="0.425605" y2="1.478349" spreadMethod="pad" gradientUnits="objectBoundingBox" gradientTransform="translate(0 0)"><stop id="eNvjHxdQPhe22-fill-0" offset="0%" stop-color="#111f51"/><stop id="eNvjHxdQPhe22-fill-1" offset="100%" stop-color="rgba(131,69,159,0)"/></linearGradient><linearGradient id="eNvjHxdQPhe23-fill" x1="0.42956" y1="0.075593" x2="0.425605" y2="1.478349" spreadMethod="pad" gradientUnits="objectBoundingBox" gradientTransform="translate(0 0)"><stop id="eNvjHxdQPhe23-fill-0" offset="0%" stop-color="#111f51"/><stop id="eNvjHxdQPhe23-fill-1" offset="100%" stop-color="rgba(131,69,159,0)"/></linearGradient><linearGradient id="eNvjHxdQPhe25-fill" x1="0.445105" y1="0.055945" x2="0.391535" y2="1.640046" spreadMethod="pad" gradientUnits="objectBoundingBox" gradientTransform="translate(0 0)"><stop id="eNvjHxdQPhe25-fill-0" offset="0%" stop-color="#111f51"/><stop id="eNvjHxdQPhe25-fill-1" offset="100%" stop-color="rgba(131,69,159,0)"/></linearGradient><linearGradient id="eNvjHxdQPhe27-fill" x1="0.48903" y1="0.031721" x2="0.48903" y2="1.792029" spreadMethod="pad" gradientUnits="objectBoundingBox" gradientTransform="translate(0 0)"><stop id="eNvjHxdQPhe27-fill-0" offset="0%" stop-color="#111f51"/><stop id="eNvjHxdQPhe27-fill-1" offset="100%" stop-color="rgba(131,69,159,0)"/></linearGradient><linearGradient id="eNvjHxdQPhe29-fill" x1="0.444034" y1="0.028008" x2="0.444034" y2="1.443376" spreadMethod="pad" gradientUnits="objectBoundingBox" gradientTransform="translate(0 0)"><stop id="eNvjHxdQPhe29-fill-0" offset="0%" stop-color="#111f51"/><stop id="eNvjHxdQPhe29-fill-1" offset="100%" stop-color="rgba(131,69,159,0)"/></linearGradient><linearGradient id="eNvjHxdQPhe31-fill" x1="0.500907" y1="0.072109" x2="0.500907" y2="1.474082" spreadMethod="pad" gradientUnits="objectBoundingBox" gradientTransform="translate(0 0)"><stop id="eNvjHxdQPhe31-fill-0" offset="0%" stop-color="#111f51"/><stop id="eNvjHxdQPhe31-fill-1" offset="100%" stop-color="rgba(131,69,159,0)"/></linearGradient><linearGradient id="eNvjHxdQPhe33-fill" x1="0.493924" y1="0.014354" x2="0.476636" y2="1.349259" spreadMethod="pad" gradientUnits="objectBoundingBox" gradientTransform="translate(0 0)"><stop id="eNvjHxdQPhe33-fill-0" offset="0%" stop-color="#111f51"/><stop id="eNvjHxdQPhe33-fill-1" offset="100%" stop-color="rgba(131,69,159,0)"/></linearGradient><linearGradient id="eNvjHxdQPhe37-fill" x1="0.505817" y1="0.025428" x2="0.505817" y2="1.414711" spreadMethod="pad" gradientUnits="objectBoundingBox" gradientTransform="translate(0 0)"><stop id="eNvjHxdQPhe37-fill-0" offset="0%" stop-color="#111f51"/><stop id="eNvjHxdQPhe37-fill-1" offset="100%" stop-color="rgba(131,69,159,0)"/></linearGradient><linearGradient id="eNvjHxdQPhe40-fill" x1="0.505817" y1="0.025428" x2="0.505817" y2="1.414711" spreadMethod="pad" gradientUnits="objectBoundingBox" gradientTransform="translate(0 0)"><stop id="eNvjHxdQPhe40-fill-0" offset="0%" stop-color="#111f51"/><stop id="eNvjHxdQPhe40-fill-1" offset="100%" stop-color="rgba(131,69,159,0)"/></linearGradient><linearGradient id="eNvjHxdQPhe41-fill" x1="0.505817" y1="0.025428" x2="0.505817" y2="1.414711" spreadMethod="pad" gradientUnits="objectBoundingBox" gradientTransform="translate(0 0)"><stop id="eNvjHxdQPhe41-fill-0" offset="0%" stop-color="#111f51"/><stop id="eNvjHxdQPhe41-fill-1" offset="100%" stop-color="rgba(131,69,159,0)"/></linearGradient><linearGradient id="eNvjHxdQPhe43-fill" x1="0.493524" y1="0.021892" x2="0.493524" y2="1.704281" spreadMethod="pad" gradientUnits="objectBoundingBox" gradientTransform="translate(0 0)"><stop id="eNvjHxdQPhe43-fill-0" offset="0%" stop-color="#111f51"/><stop id="eNvjHxdQPhe43-fill-1" offset="100%" stop-color="rgba(131,69,159,0)"/></linearGradient><linearGradient id="eNvjHxdQPhe45-fill" x1="0.446052" y1="-0.001044" x2="0.446052" y2="1.487595" spreadMethod="pad" gradientUnits="objectBoundingBox" gradientTransform="translate(0 0)"><stop id="eNvjHxdQPhe45-fill-0" offset="0%" stop-color="#111f51"/><stop id="eNvjHxdQPhe45-fill-1" offset="100%" stop-color="rgba(131,69,159,0)"/></linearGradient><linearGradient id="eNvjHxdQPhe47-fill" x1="0.479235" y1="-0.034542" x2="0.479235" y2="1.711247" spreadMethod="pad" gradientUnits="objectBoundingBox" gradientTransform="translate(0 0)"><stop id="eNvjHxdQPhe47-fill-0" offset="0%" stop-color="#111f51"/><stop id="eNvjHxdQPhe47-fill-1" offset="100%" stop-color="rgba(131,69,159,0)"/></linearGradient><linearGradient id="eNvjHxdQPhe49-fill" x1="0.507317" y1="0.031721" x2="0.507317" y2="1.620621" spreadMethod="pad" gradientUnits="objectBoundingBox" gradientTransform="translate(0 0)"><stop id="eNvjHxdQPhe49-fill-0" offset="0%" stop-color="#111f51"/><stop id="eNvjHxdQPhe49-fill-1" offset="100%" stop-color="rgba(131,69,159,0)"/></linearGradient><linearGradient id="eNvjHxdQPhe51-fill" x1="0.512365" y1="-0.034542" x2="0.512365" y2="1.582866" spreadMethod="pad" gradientUnits="objectBoundingBox" gradientTransform="translate(0 0)"><stop id="eNvjHxdQPhe51-fill-0" offset="0%" stop-color="#111f51"/><stop id="eNvjHxdQPhe51-fill-1" offset="100%" stop-color="rgba(131,69,159,0)"/></linearGradient><linearGradient id="eNvjHxdQPhe53-fill" x1="0.48535" y1="0.004762" x2="0.48535" y2="1.760578" spreadMethod="pad" gradientUnits="objectBoundingBox" gradientTransform="translate(0 0)"><stop id="eNvjHxdQPhe53-fill-0" offset="0%" stop-color="#111f51"/><stop id="eNvjHxdQPhe53-fill-1" offset="100%" stop-color="rgba(131,69,159,0)"/></linearGradient><linearGradient id="eNvjHxdQPhe54-fill" x1="0.471969" y1="0.075584" x2="0.471969" y2="0.919494" spreadMethod="pad" gradientUnits="objectBoundingBox" gradientTransform="translate(0 0)"><stop id="eNvjHxdQPhe54-fill-0" offset="0%" stop-color="#27266d"/><stop id="eNvjHxdQPhe54-fill-1" offset="54%" stop-color="#271550"/></linearGradient></defs><rect width="4349.957414" height="2453.372877" rx="0" ry="0" transform="matrix(1.282895 0 0 1.362961-765.463216-532.659455)" fill="url(#eNvjHxdQPhe2-fill)" stroke-width="0"/><ellipse rx="454.183455" ry="454.183455" transform="matrix(.659747 0 0 0.659747-53.24453 369.886477)" fill="url(#eNvjHxdQPhe3-fill)" stroke-width="0"/><polygon points="300.558303,-1190.753893 658.412029,-673.77544 847.445455,-629.814178 1106.8169,-234.162821 1397.089977,166.276877 816.80132,166.276877 379.568134,171.862558 166.66715,171.862558 -612.580737,166.276877 -330.716364,-234.162821 -110.910054,-383.631111 300.558303,-1190.753893 300.558303,-1190.753893" transform="matrix(1.44304 0 0 1.808375 2571.357137 2154.421672)" fill="url(#eNvjHxdQPhe4-fill)" stroke-width="0"/><polygon points="300.558303,-1190.753893 527.22081,-642.765345 847.445455,-629.814178 1106.8169,-234.162821 1397.089977,166.276877 816.80132,166.276877 379.568134,171.862558 166.66715,171.862558 -612.580737,166.276877 -330.716364,-234.162821 -41.6251,-598.823248 300.558303,-1190.753893 300.558303,-1190.753893" transform="matrix(1.44304 0 0 1.808375 3714.821521 2351.117977)" fill="url(#eNvjHxdQPhe5-fill)" stroke-width="0"/><polygon points="300.558303,-1190.753893 658.412029,-673.77544 847.445455,-629.814178 1106.8169,-234.162821 1397.089977,166.276877 816.80132,166.276877 379.568134,171.862558 166.66715,171.862558 -612.580737,166.276877 -330.716364,-234.162821 -110.910054,-383.631111 300.558303,-1190.753893 300.558303,-1190.753893" transform="matrix(-1.409633 0 0 1.471072 1300.897951 2230.279904)" fill="url(#eNvjHxdQPhe6-fill)" stroke-width="0"/><polygon points="300.558303,-1190.753893 658.412029,-673.77544 847.445455,-629.814178 1106.8169,-234.162821 1397.089977,166.276877 816.80132,166.276877 379.568134,171.862558 166.66715,171.862558 -612.580737,166.276877 -330.716364,-234.162821 -110.910054,-383.631111 300.558303,-1190.753893 300.558303,-1190.753893" transform="matrix(-1.990255 0 0 1.471072 12.0152 1888.697577)" fill="url(#eNvjHxdQPhe7-fill)" stroke-width="0"/><polygon points="300.558303,-1190.753893 658.412029,-673.77544 847.445455,-629.814178 1106.8169,-234.162821 1397.089977,166.276877 816.80132,166.276877 379.568134,171.862558 166.66715,171.862558 -612.580737,166.276877 -330.716364,-234.162821 -110.910054,-383.631111 300.558303,-1190.753893 300.558303,-1190.753893" transform="matrix(.676406 0 0 0.662574 1089.368641 1538.391888)" fill="url(#eNvjHxdQPhe8-fill)" stroke-width="0"/><polygon points="300.558303,-1190.753893 658.412029,-673.77544 847.445455,-629.814178 1106.8169,-234.162821 1397.089977,166.276877 816.80132,166.276877 379.568134,171.862558 166.66715,171.862558 -612.580737,166.276877 -330.716364,-234.162821 -110.910054,-383.631111 300.558303,-1190.753893 300.558303,-1190.753893" transform="matrix(-2.123221 0 0 1.893664 2899.140514 2763.872811)" fill="url(#eNvjHxdQPhe9-fill)" stroke-width="0"/><g transform="translate(-5164.073599 1250.173099)"><polygon points="23.482837,-1385.59433 402.498985,345.189938 -267.888943,345.189938 23.482837,-1385.59433" transform="matrix(1.255157 0 0 1.0952 8375.917332 663.539671)" fill="#333778" stroke-width="0"/><polygon points="23.482837,-1385.59433 402.498985,345.189938 -267.888943,345.189938 23.482837,-1385.59433" transform="matrix(1.255157 0 0 1.0952 8375.917332 663.539671)" fill="url(#eNvjHxdQPhe12-fill)" stroke-width="0"/><polygon points="23.482837,-1385.59433 369.487957,344.309488 -267.888943,345.189938 23.482837,-1385.59433" transform="translate(6987.102143 699.878264)" fill="#333778" stroke-width="0"/><polygon points="23.482837,-1385.59433 369.487957,344.309488 -267.888943,345.189938 23.482837,-1385.59433" transform="matrix(1.07566 0 0 1.205185 9196.499112 863.974861)" fill="#333778" stroke-width="0"/><polygon points="23.482837,-1385.59433 369.487957,344.309488 -267.888943,345.189938 23.482837,-1385.59433" transform="translate(6987.20154 699.878265)" fill="url(#eNvjHxdQPhe15-fill)" stroke-width="0"/><polygon points="23.482837,-1385.59433 369.487957,344.309488 -267.888943,345.189938 23.482837,-1385.59433" transform="matrix(1.07566 0 0 1.205185 9196.499112 857.615432)" fill="url(#eNvjHxdQPhe16-fill)" stroke-width="0"/><polygon points="23.482837,-1385.59433 402.498985,345.189938 -267.888943,345.189938 23.482837,-1385.59433" transform="translate(7405.015908 614.016424)" fill="#262951" stroke-width="0"/><polygon points="23.482837,-1385.59433 402.498985,345.189938 -267.888943,345.189938 23.482837,-1385.59433" transform="translate(7405.015908 614.016424)" fill="url(#eNvjHxdQPhe18-fill)" stroke-width="0"/><polygon points="23.482837,-1385.59433 402.498985,345.189938 -267.888943,345.189938 23.482837,-1385.59433" transform="translate(7927.611592 1067.045331)" fill="#262951" stroke-width="0"/><polygon points="23.482837,-1385.59433 402.498985,345.189938 -267.888943,345.189938 23.482837,-1385.59433" transform="translate(7927.611592 1067.045331)" fill="url(#eNvjHxdQPhe20-fill)" stroke-width="0"/><polygon points="23.482837,-1385.59433 402.498985,345.189938 -267.888943,345.189938 23.482837,-1385.59433" transform="translate(8125.093826 850.386446)" fill="#1b1d3a" stroke-width="0"/><polygon points="23.482837,-1385.59433 402.498985,345.189938 -267.888943,345.189938 23.482837,-1385.59433" transform="translate(8125.093826 850.386446)" fill="url(#eNvjHxdQPhe22-fill)" stroke-width="0"/><polygon points="23.482837,-1385.59433 402.498985,345.189938 -267.888943,345.189938 23.482837,-1385.59433" transform="translate(8125.093826 850.386446)" fill="url(#eNvjHxdQPhe23-fill)" stroke-width="0"/><polygon points="23.482837,-1385.59433 402.498985,345.189938 -267.888943,345.189938 23.482837,-1385.59433" transform="translate(7637.175665 605.523691)" fill="#1b1d3a" stroke-width="0"/><polygon points="23.482837,-1385.59433 402.498985,345.189938 -267.888943,345.189938 23.482837,-1385.59433" transform="translate(7637.175665 605.523691)" fill="url(#eNvjHxdQPhe25-fill)" stroke-width="0"/><polygon points="23.482837,-1385.59433 387.043852,336.60374 -267.888943,345.189938 23.482837,-1385.59433" transform="translate(6209.819103 596.844056)" fill="#333778" stroke-width="0"/><polygon points="23.482837,-1385.59433 387.043852,336.60374 -267.888943,345.189938 23.482837,-1385.59433" transform="translate(6209.819103 596.844056)" fill="url(#eNvjHxdQPhe27-fill)" stroke-width="0"/><polygon points="23.482837,-1385.59433 402.498985,345.189938 -267.888943,345.189938 23.482837,-1385.59433" transform="matrix(1.256294 0 0 1.025385 6402.036937 1144.880319)" fill="#262951" stroke-width="0"/><polygon points="23.482837,-1385.59433 402.498985,345.189938 -267.888943,345.189938 23.482837,-1385.59433" transform="matrix(1.256294 0 0 1.025385 6402.036937 1144.880319)" fill="url(#eNvjHxdQPhe29-fill)" stroke-width="0"/><polygon points="23.482837,-1385.59433 380.174904,362.362306 -267.888943,345.189938 23.482837,-1385.59433" transform="translate(6663.169616 579.671688)" fill="#1b1d3a" stroke-width="0"/><polygon points="23.482837,-1385.59433 380.174904,362.362306 -267.888943,345.189938 23.482837,-1385.59433" transform="translate(6663.169616 579.671688)" fill="url(#eNvjHxdQPhe31-fill)" stroke-width="0"/><polygon points="23.482837,-1385.59433 380.174904,362.362306 -267.888943,345.189938 23.482837,-1385.59433" transform="translate(6221.022773 1301.615768)" fill="#1b1d3a" stroke-width="0"/><polygon points="23.482837,-1385.59433 380.174904,362.362306 -267.888943,345.189938 23.482837,-1385.59433" transform="translate(6221.022773 1301.615768)" fill="url(#eNvjHxdQPhe33-fill)" stroke-width="0"/><polygon points="23.482837,-1385.59433 380.174904,362.362306 -267.888943,345.189938 23.482837,-1385.59433" transform="translate(7175.58294 967.863599)" fill="#1b1d3a" stroke-width="0"/><polygon points="23.482837,-1385.59433 380.174904,362.362306 -267.888943,345.189938 23.482837,-1385.59433" transform="matrix(1.549548 0 0 1.549548 8774.758786 1130.738686)" fill="#1b1d3a" stroke-width="0"/><polygon points="23.482837,-1385.59433 380.174904,362.362306 -267.888943,345.189938 23.482837,-1385.59433" transform="matrix(1.549548 0 0 1.549548 4486.182015 1293.081684)" fill="#1b1d3a" stroke-width="0"/><polygon points="23.482837,-1385.59433 380.174904,362.362306 -267.888943,345.189938 23.482837,-1385.59433" transform="translate(7175.58294 967.863599)" fill="url(#eNvjHxdQPhe37-fill)" stroke-width="0"/><g transform="matrix(1.549548 0 0 1.549548-920.784948-980.286532)"><g transform="translate(-694.498556-44.806358)"><polygon points="23.482837,-1385.59433 380.174904,362.362306 -267.888943,345.189938 23.482837,-1385.59433" transform="translate(6951.512688 1407.15539)" fill="url(#eNvjHxdQPhe40-fill)" stroke-width="0"/><polygon points="23.482837,-1385.59433 380.174904,362.362306 -267.888943,345.189938 23.482837,-1385.59433" transform="translate(4183.881888 1505.204166)" fill="url(#eNvjHxdQPhe41-fill)" stroke-width="0"/></g></g><polygon points="23.482837,-1385.59433 421.305326,345.189938 -342.865047,345.189938 23.482837,-1385.59433" transform="translate(5523.007647 699.878264)" fill="#373b77" stroke-width="0"/><polygon points="23.482837,-1385.59433 421.305326,345.189938 -342.865047,345.189938 23.482837,-1385.59433" transform="translate(5523.007647 699.878264)" fill="url(#eNvjHxdQPhe43-fill)" stroke-width="0"/><polygon points="23.482837,-1385.59433 402.498985,345.189938 -267.888943,345.189938 23.482837,-1385.59433" transform="translate(5343.17022 1067.045331)" fill="#262951" stroke-width="0"/><polygon points="23.482837,-1385.59433 402.498985,345.189938 -267.888943,345.189938 23.482837,-1385.59433" transform="translate(5343.17022 1067.045331)" fill="url(#eNvjHxdQPhe45-fill)" stroke-width="0"/><polygon points="23.482837,-1385.59433 364.636514,336.567238 -267.888943,345.189938 23.482837,-1385.59433" transform="translate(5904.760043 614.016424)" fill="#1b1d3a" stroke-width="0"/><polygon points="23.482837,-1385.59433 364.636514,336.567238 -267.888943,345.189938 23.482837,-1385.59433" transform="translate(5904.760043 614.016424)" fill="url(#eNvjHxdQPhe47-fill)" stroke-width="0"/><polygon points="23.482837,-1385.59433 364.636514,336.567238 -267.888943,345.189938 23.482837,-1385.59433" transform="translate(5640.789554 893.5146)" fill="#1b1d3a" stroke-width="0"/><polygon points="23.482837,-1385.59433 364.636514,336.567238 -267.888943,345.189938 23.482837,-1385.59433" transform="translate(5640.789554 893.5146)" fill="url(#eNvjHxdQPhe49-fill)" stroke-width="0"/><polygon points="23.482837,-1385.59433 286.8618,345.189938 -267.888943,345.189938 23.482837,-1385.59433" transform="translate(4855.3028 844.172925)" fill="#333778" stroke-width="0"/><polygon points="23.482837,-1385.59433 286.8618,345.189938 -267.888943,345.189938 23.482837,-1385.59433" transform="translate(4855.3028 844.172925)" fill="url(#eNvjHxdQPhe51-fill)" stroke-width="0"/><polygon points="23.482837,-1385.59433 397.923719,344.573146 -349.353564,344.573146 23.482837,-1385.59433" transform="matrix(1 0 0 1.100389 5160.536461 630.961837)" fill="#1b1d3a" stroke-width="0"/><polygon points="23.482837,-1385.59433 397.923719,344.573146 -349.353564,344.573146 23.482837,-1385.59433" transform="matrix(1 0 0 1.100389 5160.536461 630.961837)" fill="url(#eNvjHxdQPhe53-fill)" stroke-width="0"/></g><rect width="4699.652962" height="2558.220752" rx="0" ry="0" transform="matrix(1.712388 0 0 1.276405-2149.986617-532.659455)" opacity="0.5" fill="url(#eNvjHxdQPhe54-fill)" stroke-width="0"/></svg>
